# xmcd
#
# Track frame offsets: 
#        150
#        16920
#        36320
#        55618
#        77582
#        93331
#        116037
#        135563
#        154335
#        175013
#        192526
#        211808
#        235646
#        256833
#        278536
#        302446
#
# Disc length: 4319 seconds
#
# Revision: 0
# Processed by: cddbd v1.5.2PL0 Copyright (c) Steve Scherf et al.
# Submitted via: ExactAudioCopyFreeDBPlugin 1.0
#
DISCID=c510dd10
DTITLE=Staind - The Illusion Of Progress
DYEAR=2008
DGENRE=Rock
TTITLE0=This Is It
TTITLE1=The Way I Am
TTITLE2=Believe
TTITLE3=Save Me
TTITLE4=All I Want
TTITLE5=Pardon Me
TTITLE6=Lost Along The Way
TTITLE7=Break Away
TTITLE8=Tangled Up In You
TTITLE9=Raining Again
TTITLE10=Rainy Day Parade
TTITLE11=The Corner
TTITLE12=Nothing Left To Say
TTITLE13=It's Been Awhile (Acoustic Live)
TTITLE14=Devil (Acoustic Live)
TTITLE15=Schizophrenic Conversations (Acoustic Live)
EXTD=
EXTT0=
EXTT1=
EXTT2=
EXTT3=
EXTT4=
EXTT5=
EXTT6=
EXTT7=
EXTT8=
EXTT9=
EXTT10=
EXTT11=
EXTT12=
EXTT13=
EXTT14=
EXTT15=
PLAYORDER=
